<svg xmlns="http://www.w3.org/2000/svg" width="166.291" height="27.403" viewBox="0 0 166.291 27.403">
  <defs>
    <style>
      .cls-1 {
        fill: #fff;
      }

      .cls-13, .cls-2 {
        fill: #444;
      }

      .cls-2 {
        font-size: 18px;
        font-family: KristenITC-Regular, Kristen ITC;
      }

      .cls-3 {
        fill: #ffb796;
      }

      .cls-4 {
        fill: #79726f;
      }

      .cls-5 {
        fill: #ffc170;
      }

      .cls-16, .cls-6, .cls-7, .cls-8, .cls-9 {
        fill: none;
      }

      .cls-6 {
        stroke: #4e4947;
        stroke-width: 0.5px;
      }

      .cls-13, .cls-6, .cls-7 {
        stroke-linecap: round;
      }

      .cls-7, .cls-8 {
        stroke: #444;
      }

      .cls-10 {
        fill: #f1f39e;
      }

      .cls-11 {
        fill: #f6cc2f;
      }

      .cls-12 {
        fill: #333;
      }

      .cls-13 {
        stroke: #fff;
        stroke-width: 0.2px;
      }

      .cls-14, .cls-15 {
        stroke: none;
      }

      .cls-15 {
        fill: #444;
      }
    </style>
  </defs>
  <g transform="translate(0.217 0.631)">
    <path class="cls-1" d="M12.947,4.619c2.072,0,1.166-.531,3.035.268.295.125,4.545-4.2,5.133-3.884,1.531.817,1.875,5.848,1.7,9.2a11.141,11.141,0,0,1,2.41,7.153c0,4.539-4.342,8.124-4.342,8.124a45.946,45.946,0,0,1-7.219,1.116c-5.635.233-12.233-6.41-12.233-6.41a11.023,11.023,0,0,1-.355-3.767C2.144,10.79,5.215,4.619,12.947,4.619Z" transform="translate(1.537 -0.457)"/>
    <text class="cls-2" transform="translate(35.074 20.772)"><tspan x="0" y="0">DrinkLessCola</tspan></text>
    <g data-name="组件 2 – 1">
      <g transform="translate(2.013)">
        <path class="cls-3" d="M2.793-.043S4.65,7.668,4.828,9.06.687,6.668,1.151,5.455,2.793-.043,2.793-.043Z" transform="translate(18.061 0.043)"/>
        <path class="cls-4" d="M2.753.062C3.4.109,9.019,2.726,9.019,4.936S7.8,6.854,5.06,6.019-.406,3.579-.406,1.369,2.1.016,2.753.062Z" transform="translate(13.061 4.043)"/>
        <path class="cls-5" d="M5.606.41C6,.264,11.115,3.985,9.863,4.7s-4.826,2.616-5.8,4.713-.39-1.821-.39-4.03S5.216.556,5.606.41Z" transform="translate(0.061 -0.296)"/>
        <path class="cls-3" d="M3.37.082C2.942-1.132.265,9.863,1.122,9.06s2.106-1.909,3-2.731S3.8,1.3,3.37.082Z" transform="translate(2.605 0.367)"/>
        <path class="cls-6" d="M20.391,39.275a4.448,4.448,0,0,0,1.714-.337,8.471,8.471,0,0,0,1.254-.8,8.665,8.665,0,0,0,1.189.8,8.922,8.922,0,0,0,1.25.6" transform="translate(-10.129 -17.72)"/>
        <path class="cls-7" d="M16.175,35.343C17.211,28.387,19,25.084,19,25.084s2.039.824,4.665,4.473" transform="translate(-13.404 -25.084)"/>
        <path class="cls-8" d="M8.016,9.893C6.872,2.208,5.4,0,5.4,0S2.78.572,0,4.579" transform="translate(15.444 0.16) rotate(3)"/>
        <g class="cls-9" transform="translate(0.061 3.648)">
          <path class="cls-14" d="M12.866.142c6.881,0,11.762,5.472,12.257,12.752s-5.079,9.772-11.96,9.772S-.923,18.708.023,12.265A15.384,15.384,0,0,1,3.435,4.69,12.99,12.99,0,0,1,10.456.382,11.039,11.039,0,0,1,12.866.142Z"/>
          <path class="cls-15" d="M 12.86609649658203 1.141622543334961 C 11.97747611999512 1.141622543334961 11.10701560974121 1.246522903442383 10.70643615722656 1.350143432617188 L 10.68973636627197 1.354312896728516 C 8.095876693725586 1.977872848510742 5.735845565795898 3.421833038330078 4.211755752563477 5.319692611694336 C 2.438606262207031 7.506103515625 1.392196655273438 9.82529354095459 1.012735366821289 12.4097728729248 C 0.7324256896972656 14.31891345977783 1.251415252685547 16.05220413208008 2.555286407470703 17.56149291992188 C 4.708906173706055 20.05441284179688 8.872546195983887 21.66522407531738 13.16263580322266 21.66522407531738 C 17.43666648864746 21.66522407531738 20.63067626953125 20.66473388671875 22.39935684204102 18.77190399169922 C 23.7109260559082 17.36827278137207 24.29154586791992 15.4133129119873 24.12508583068848 12.96132373809814 C 23.89835548400879 9.621683120727539 22.66810607910156 6.607044219970703 20.66094589233398 4.472732543945313 C 18.61155700683594 2.293502807617188 15.91613578796387 1.141622543334961 12.86609649658203 1.141622543334961 M 12.86609649658203 0.1416225433349609 C 19.74694633483887 0.1416225433349609 24.62855529785156 5.613733291625977 25.1227855682373 12.89359283447266 C 25.61700630187988 20.17345428466797 20.04347610473633 22.66522407531738 13.16263580322266 22.66522407531738 C 6.281795501708984 22.66522407531738 -0.9226741790771484 18.70771408081055 0.023345947265625 12.26450347900391 C 0.4133052825927734 9.608503341674805 1.494836807250977 7.082242965698242 3.435066223144531 4.689813613891602 C 4.957395553588867 2.794122695922852 7.434345245361328 1.108413696289063 10.4559965133667 0.3820133209228516 C 10.93631649017334 0.2577629089355469 11.88213634490967 0.1416225433349609 12.86609649658203 0.1416225433349609 Z"/>
        </g>
        <g transform="translate(0 0.16)">
          <path class="cls-10" d="M2.939.007c2.054-.18,3.55,1.133,3.2,2.616a3.049,3.049,0,0,1-3.2,2.2C1.5,4.795.409,4.517-.023,2.622S.886.187,2.939.007Z" transform="translate(4.771 11.9)"/>
          <path class="cls-11" d="M1.638,0c.9,0,1.5.64,1.637,2.417S2.543,4.833,1.638,4.833-.074,4.318,0,2.417.734,0,1.638,0Z" transform="translate(6.158 11.891)"/>
          <path class="cls-12" d="M1.42.075C2.23.075,2.394.718,2.585,2S2.23,4.015,1.42,4.015.063,3.306.191,2,.609.075,1.42.075Z" transform="translate(6.362 12.262)"/>
          <path class="cls-1" d="M.437,0C.679,0,.8.058.8.295S.611.649.368.649-.016.532-.016.295.195,0,.437,0Z" transform="translate(7.567 12.488)"/>
        </g>
        <g transform="translate(14.927 12.051)">
          <path class="cls-10" d="M3.2.007C1.224-.056-.348,1.139,0,2.622a3.049,3.049,0,0,0,3.2,2.2,2.664,2.664,0,0,0,2.929-2.2C6.479.978,5.18.07,3.2.007Z" transform="translate(0.043 0.009)"/>
          <path class="cls-11" d="M1.649,0C.745,0,.153.64.012,2.417S.745,4.833,1.649,4.833s1.712-.515,1.637-2.417S2.553,0,1.649,0Z" transform="translate(1.51 0)"/>
          <path class="cls-12" d="M1.376.075C.566.075.4.718.21,2S.566,4.015,1.376,4.015,2.733,3.306,2.605,2,2.186.075,1.376.075Z" transform="translate(1.797 0.371)"/>
          <path class="cls-1" d="M.355,0C.1,0-.016.059-.016.3S.176.665.425.665s.4-.12.4-.363S.6,0,.355,0Z" transform="translate(3.025 0.598)"/>
        </g>
        <g class="cls-13" transform="translate(21.278 21.243) rotate(19)">
          <rect class="cls-14" width="5" height="0.8" rx="0.4"/>
          <rect class="cls-16" x="-0.1" y="-0.1" width="5.2" height="1" rx="0.5"/>
        </g>
        <g class="cls-13" transform="translate(22.056 18.806) rotate(5)">
          <rect class="cls-14" width="5" height="0.8" rx="0.4"/>
          <rect class="cls-16" x="-0.1" y="-0.1" width="5.2" height="1" rx="0.5"/>
        </g>
        <path class="cls-5" d="M5.416-1.461c.288.394.45.456.587.819.388-.181,3.162-.778,3.088.106C9.048-.038,8.428,3.256,6,4.828c-2.331,1.514-6.067,1.338-7.253.52l.663-1.238.156-1.572c0-.624,1.71-1.952,3.6-3A11,11,0,0,1,5.416-1.461Z" transform="translate(4.061 5.704)"/>
        <path class="cls-7" d="M4.592,7.2A9.256,9.256,0,0,1,7.777,4.955" transform="translate(0.063 0.355)"/>
      </g>
      <g class="cls-13" transform="matrix(0.839, -0.545, 0.545, 0.839, 2.156, 23.461)">
        <rect class="cls-14" width="5" height="0.8" rx="0.4"/>
        <rect class="cls-16" x="-0.1" y="-0.1" width="5.2" height="1" rx="0.5"/>
      </g>
      <g class="cls-13" transform="matrix(0.996, -0.087, 0.087, 0.996, 0, 19.293)">
        <rect class="cls-14" width="5" height="0.8" rx="0.4"/>
        <rect class="cls-16" x="-0.1" y="-0.1" width="5.2" height="1" rx="0.5"/>
      </g>
    </g>
  </g>
</svg>
