<svg xmlns="http://www.w3.org/2000/svg" viewBox="0 0 469.089 419.357">
  <defs>
    <style>
      .cls-1 {
        fill: #ffb796;
      }

      .cls-2 {
        fill: #79726f;
      }

      .cls-3 {
        fill: #ffc170;
      }

      .cls-16, .cls-4, .cls-5, .cls-6 {
        fill: none;
      }

      .cls-4 {
        stroke: #4e4947;
      }

      .cls-11, .cls-12, .cls-4, .cls-5 {
        stroke-linecap: round;
      }

      .cls-4, .cls-5 {
        stroke-width: 10px;
      }

      .cls-5 {
        stroke: #444;
      }

      .cls-7 {
        fill: #f1f39e;
        stroke-linejoin: round;
      }

      .cls-8 {
        fill: #f6cc2f;
      }

      .cls-9 {
        fill: #333;
      }

      .cls-10 {
        fill: #fff;
      }

      .cls-11, .cls-12 {
        fill: #444;
        stroke: #fff;
      }

      .cls-11 {
        stroke-width: 4px;
      }

      .cls-12 {
        stroke-width: 6px;
      }

      .cls-13, .cls-14, .cls-15 {
        stroke: none;
      }

      .cls-14 {
        fill: #444;
      }

      .cls-15 {
        fill: #79726f;
      }
    </style>
  </defs>
  <g transform="translate(-12.63 -3.304)">
    <g transform="translate(16.963 9.614)">
      <g transform="translate(33.85)">
        <path class="cls-1" d="M26.516,2.523S56.584,121,59.386,142.86s-65.007-37.547-57.722-56.6S26.516,2.523,26.516,2.523Z" transform="translate(299.906 0.043)"/>
        <path class="cls-2" d="M49.194,3.022c10.2.728,98.351,41.819,98.351,76.5S128.378,109.637,85.4,96.523-.406,58.215-.406,23.538,38.995,2.293,49.194,3.022Z" transform="translate(199.041 61.426)"/>
        <path class="cls-3" d="M36.584.472c6.122-2.3,86.471,56.117,66.83,67.34S27.657,108.88,12.352,141.785,6.23,113.2,6.23,78.525,30.463,2.767,36.584.472Z" transform="translate(52.366 1.324)"/>
        <path class="cls-1" d="M46.544,1.525c-8.082-19.906-58.58,160.4-42.423,147.235s39.729-31.314,56.565-44.779S54.626,21.431,46.544,1.525Z" transform="translate(46.884 5.592)"/>
        <path class="cls-4" d="M20.391,55.93s16.171.148,26.908-5.29a132.978,132.978,0,0,0,19.688-12.5s11.407,9.022,18.667,12.5,11.022,6.48,19.614,9.345" transform="translate(140.683 282.424)"/>
        <path class="cls-5" d="M16.175,186.113C32.444,76.93,60.545,25.084,60.545,25.084s32,12.938,73.22,70.22" transform="translate(27.309 -25.084)"/>
        <path class="cls-5" d="M125.272,147.472C109.762,43.7,91.122,11.462,85.86,1.946,85.165.689,84.7,0,84.7,0S46.929,1.568,3.294,64.454" transform="translate(242.43 2.516) rotate(3)"/>
        <g class="cls-6" transform="translate(0.061 59.351)">
          <path class="cls-13" d="M202.852.142c108.009,0,184.636,85.9,192.394,200.168S315.516,353.7,207.507,353.7-13.59,291.574,1.259,190.435c6.121-41.691,23.1-81.346,53.554-118.9,23.9-29.757,62.777-56.217,110.208-67.62C172.561,1.965,187.407.142,202.852.142Z"/>
          <path class="cls-14" d="M 202.8524780273438 10.14163208007813 C 187.75634765625 10.14163208007813 173.9575958251953 11.93246459960938 167.3582916259766 13.63803100585938 C 125.4400329589844 23.71502685546875 87.2608642578125 47.09976196289063 62.58010864257813 77.83358764648438 C 34.08428955078125 112.9706420898438 17.26242065429688 150.2780151367188 11.15310668945313 191.8875732421875 C 6.501861572265625 223.5670776367188 15.09442138671875 252.30615234375 36.69210815429688 277.3064575195313 C 71.53298950195313 317.6362609863281 138.5819091796875 343.6955261230469 207.5072174072266 343.6955261230469 C 276.2152099609375 343.6955261230469 327.7911071777344 327.3657531738281 356.6590270996094 296.4715881347656 C 378.3674621582031 273.2393798828125 387.9932861328125 241.1138305664063 385.2691650390625 200.9871978759766 C 377.6406555175781 88.62020874023438 302.628173828125 10.14163208007813 202.8524780273438 10.14163208007813 M 202.8524780273438 0.141632080078125 C 310.8614196777344 0.141632080078125 387.4883422851563 86.03756713867188 395.2462158203125 200.3098907470703 C 403.0039672851563 314.5821533203125 315.51611328125 353.6955261230469 207.5072174072266 353.6955261230469 C 99.498291015625 353.6955261230469 -13.59039306640625 291.5743408203125 1.2591552734375 190.4349517822266 C 7.380462646484375 148.7435760498047 24.3572998046875 109.0887603759766 54.813232421875 71.53469848632813 C 78.709228515625 41.7779541015625 117.5899658203125 15.3172607421875 165.0209045410156 3.915008544921875 C 172.5605316162109 1.964691162109375 187.4072265625 0.141632080078125 202.8524780273438 0.141632080078125 Z"/>
        </g>
        <g transform="translate(73.26 189.15)">
          <g class="cls-7" transform="translate(0.104 0.01)">
            <path class="cls-13" d="M 48.92577362060547 79.87472534179688 C 48.48017501831055 79.87472534179688 48.02819442749023 79.87017822265625 47.58237457275391 79.86118316650391 C 40.88168334960938 79.72610473632813 35.63819122314453 79.25621795654297 31.08084678649902 78.38245391845703 C 25.36113739013672 77.28581237792969 20.5628662109375 75.51919555664063 16.4118480682373 72.98165130615234 C 14.12337493896484 71.58268737792969 11.99850177764893 69.91841888427734 10.09628391265869 68.03504943847656 C 8.125683784484863 66.08401489257813 6.324319839477539 63.82896041870117 4.742228984832764 61.33254241943359 C 1.471847295761108 56.17218017578125 -0.9730436205863953 49.91238021850586 -2.732170820236206 42.1954345703125 C -4.074443817138672 36.30712509155273 -4.431079864501953 30.93352508544922 -3.792170763015747 26.22392463684082 C -3.152261734008789 21.50697898864746 -1.500989079475403 17.29408836364746 1.115810990333557 13.70225238800049 C 3.184138298034668 10.86327075958252 5.905283451080322 8.349943161010742 9.203665733337402 6.232106685638428 C 12.20672035217285 4.30388879776001 15.80808353424072 2.630034208297729 19.90770149230957 1.257052302360535 C 23.67697525024414 -0.005293169990181923 27.86539268493652 -1.033256769180298 32.71230316162109 -1.885584115982056 C 37.05415725708008 -2.649111270904541 41.83033752441406 -3.253875017166138 47.31375503540039 -3.734456777572632 C 49.39975738525391 -3.917274951934814 51.49877548217773 -4.009984016418457 53.55253982543945 -4.009984016418457 C 57.95553970336914 -4.009984016418457 62.28386688232422 -3.587511301040649 66.41728210449219 -2.754311323165894 C 70.43924713134766 -1.943584084510803 74.29639434814453 -0.7406567931175232 77.88157653808594 0.8210523128509521 C 81.41650390625 2.360870361328125 84.69120788574219 4.250724792480469 87.61472320556641 6.438107013702393 C 90.54457092285156 8.630215644836426 93.11748504638672 11.11757946014404 95.26200866699219 13.83108901977539 C 101.8239212036133 22.13399696350098 104.1283187866211 32.21985244750977 101.7507019042969 42.2307243347168 C 98.95750427246094 53.99139785766602 92.07640838623047 63.76570510864258 81.851318359375 70.49701690673828 C 77.18121337890625 73.57139587402344 71.92139434814453 75.94008636474609 66.21794128417969 77.53726959228516 C 60.67937469482422 79.08828735351563 54.86144638061523 79.87472534179688 48.92577362060547 79.87472534179688 Z"/>
            <path class="cls-15" d="M 53.55254745483398 -0.00997161865234375 C 51.6274528503418 -0.00997161865234375 49.66005706787109 0.07524871826171875 47.66299057006836 0.250274658203125 C 15.42659759521484 3.0755615234375 -5.613250732421875 11.55925369262695 1.167793273925781 41.3064079284668 C 7.948814392089844 71.05353546142578 25.10260009765625 75.40718841552734 47.66299057006836 75.86199188232422 C 70.22314453125 76.31683349609375 92.33085632324219 64.58221435546875 97.85894775390625 41.3064079284668 C 103.0445861816406 19.47255325317383 82.70208740234375 -0.00997161865234375 53.55254745483398 -0.00997161865234375 M 53.55255508422852 -8.009963989257813 C 72.05368041992188 -8.009963989257813 88.81918334960938 -0.7722702026367188 98.4002685546875 11.35088348388672 C 105.7367248535156 20.63386154174805 108.308708190918 31.92879867553711 105.6424255371094 43.15501403808594 C 99.85785675048828 67.51073455810547 77.065185546875 83.87473297119141 48.9257926940918 83.87473297119141 L 47.50164031982422 83.86036682128906 C 25.70761871337891 83.42101287841797 1.753707885742188 79.87151336669922 -6.632118225097656 43.08442687988281 C -9.574661254882813 30.17605972290039 -8.055618286132813 19.49801635742188 -2.1171875 11.34688568115234 C 8.066947937011719 -2.631919860839844 29.46253204345703 -6.18524169921875 46.96453094482422 -7.71917724609375 C 49.19844436645508 -7.914962768554688 51.39916229248047 -8.009963989257813 53.55255508422852 -8.009963989257813 Z"/>
          </g>
          <path class="cls-8" d="M25.769,0c14.192,0,23.474,10.051,25.7,37.935s-11.5,37.935-25.7,37.935S-1.108,67.786.073,37.935,11.578,0,25.769,0Z" transform="translate(23.346 0.014)"/>
          <path class="cls-9" d="M19.755.075c12.72,0,15.289,10.092,18.3,30.275s-5.575,31.569-18.3,31.569S-1.542,50.792.463,30.35,7.035.075,19.755.075Z" transform="translate(29.136 6.952)"/>
          <path class="cls-10" d="M7.088,0c3.8,0,5.64.91,5.64,4.629s-2.912,5.555-6.717,5.555S-.016,8.348-.016,4.629,3.284,0,7.088,0Z" transform="translate(45.295 9.394)"/>
        </g>
        <g transform="translate(234.258 189.164)">
          <g class="cls-7" transform="translate(0.045 0.204)">
            <path class="cls-13" d="M 49.66860198974609 79.66597747802734 C 49.66770553588867 79.66597747802734 49.66684722900391 79.66597747802734 49.66595077514648 79.66597747802734 C 43.73027801513672 79.66592407226563 37.91234970092773 78.87944793701172 32.37380599975586 77.32841491699219 C 26.67034912109375 75.73121643066406 21.41053199768066 73.36252593994141 16.74044036865234 70.28817749023438 C 6.515349388122559 63.55690383911133 -0.3657413125038147 53.78261184692383 -3.158941268920898 42.02197647094727 C -4.326904773712158 37.10430526733398 -4.342123031616211 32.21982955932617 -3.204195737838745 27.50424957275391 C -2.12174129486084 23.01852226257324 -0.02032312750816345 18.77957725524902 3.041695117950439 14.9051399230957 C 7.593876838684082 9.145176887512207 14.1859130859375 4.357304096221924 22.10516738891602 1.05914032459259 C 26.02969551086426 -0.5753324031829834 30.25294876098633 -1.835386872291565 34.65762329101563 -2.686059713363647 C 39.15753173828125 -3.555114269256592 43.84456634521484 -3.995768785476685 48.58849334716797 -3.995768785476685 C 49.40556716918945 -3.995768785476685 50.23576736450195 -3.982532262802124 51.05602264404297 -3.956423282623291 C 60.87478637695313 -3.643859624862671 69.60480499267578 -2.06831431388855 77.00360107421875 0.7264676094055176 C 84.82771301269531 3.681904077529907 90.94242095947266 7.917704105377197 95.17784118652344 13.31621265411377 C 98.16378784179688 17.12212181091309 100.1653823852539 21.46417617797852 101.1270217895508 26.22174072265625 C 102.1056060791016 31.0631046295166 102.0033874511719 36.34661483764648 100.8232040405273 41.92552185058594 C 99.40151214599609 48.64603042602539 97.09587860107422 54.54823303222656 93.97035217285156 59.46817779541016 C 90.96595001220703 64.19744873046875 87.12633514404297 68.14736175537109 82.55816650390625 71.20817565917969 C 78.34267425537109 74.03268432617188 73.39065551757813 76.17348480224609 67.83967590332031 77.57110595703125 C 62.8489875793457 78.82765197753906 57.18645858764648 79.52790069580078 51.00938415527344 79.65242767333984 C 50.56421279907227 79.66141510009766 50.11309432983398 79.66597747802734 49.66860198974609 79.66597747802734 Z"/>
            <path class="cls-15" d="M 48.58848190307617 0.00421905517578125 C 18.649658203125 0.00226593017578125 -4.65594482421875 18.40859603881836 0.7327880859375 41.09767532348633 C 6.260902404785156 64.37345886230469 28.36848449707031 76.10806274414063 50.92876815795898 75.65323638916016 C 73.48915863037109 75.19843292236328 91.44898223876953 66.91165161132813 96.90981292724609 41.09767532348633 C 102.3706130981445 15.28369522094727 81.97833251953125 1.029914855957031 50.92876815795898 0.04154205322265625 C 50.14608383178711 0.016632080078125 49.3626823425293 0.0042724609375 48.58848190307617 0.00421905517578125 M 48.58370208740234 -7.995780944824219 C 48.58385467529297 -7.995780944824219 48.58400726318359 -7.995780944824219 48.58415985107422 -7.995780944824219 L 51.18328857421875 -7.954414367675781 C 72.60574340820313 -7.272476196289063 89.34761810302734 -0.5952835083007813 98.32487487792969 10.84717559814453 C 105.1065063476563 19.49110794067383 107.3236389160156 30.52408599853516 104.7365951538086 42.75339126586914 C 99.12352752685547 69.28700256347656 81.07422637939453 83.04714965820313 51.09000778198242 83.651611328125 L 49.6660270690918 83.66597747802734 C 21.52661895751953 83.66597747802734 -1.266082763671875 67.302001953125 -7.050689697265625 42.94628524780273 C -9.608863830566406 32.17523956298828 -7.139015197753906 21.33556747436523 -0.0961456298828125 12.42408752441406 C 10.00901031494141 -0.3621978759765625 28.20709228515625 -7.995780944824219 48.58370208740234 -7.995780944824219 Z"/>
          </g>
          <path class="cls-8" d="M25.93,0C11.739,0,2.456,10.051.234,37.935s11.5,37.935,25.7,37.935,26.878-8.085,25.7-37.935S40.122,0,25.93,0Z" transform="translate(23.695 0)"/>
          <path class="cls-9" d="M19.07.075C6.35.075,3.782,10.167.775,30.35S6.35,61.919,19.07,61.919s21.3-11.127,19.292-31.569S31.791.075,19.07.075Z" transform="translate(30.78 6.938)"/>
          <path class="cls-10" d="M5.8,0C1.876,0-.016.933-.016,4.745s3,5.694,6.923,5.694S13.12,8.557,13.12,4.745,9.719,0,5.8,0Z" transform="translate(47.292 9.38)"/>
        </g>
        <g class="cls-11" transform="translate(334.007 333.453) rotate(19)">
          <rect class="cls-13" width="78.485" height="12.558" rx="2"/>
          <rect class="cls-16" x="-2" y="-2" width="82.485" height="16.558" rx="4"/>
        </g>
        <g class="cls-12" transform="translate(346.218 295.194) rotate(5)">
          <rect class="cls-13" width="78.485" height="12.558" rx="2"/>
          <rect class="cls-16" x="-3" y="-3" width="84.485" height="18.558" rx="5"/>
        </g>
        <path class="cls-3" d="M106.72.974c4.513,6.181,3.77,4.743,5.928,10.433,6.083-2.845,49.639-12.209,48.465,1.668-.662,7.824-10.4,59.516-48.514,84.2-36.592,23.758-95.238,21-113.853,8.167L7.36,86.14V69.107c9.936-14.668,33.257-33.23,62.928-49.68C85.5,10.954,105.1.547,106.72.974Z" transform="translate(44.736 62.749)"/>
        <path class="cls-5" d="M4.592,40.155c11.734-14.029,37.751-31.374,50-35.2" transform="translate(68.475 78.393)"/>
      </g>
      <g class="cls-11" transform="matrix(0.839, -0.545, 0.545, 0.839, 33.85, 370.273)">
        <rect class="cls-13" width="78.485" height="12.558" rx="2"/>
        <rect class="cls-16" x="-2" y="-2" width="82.485" height="16.558" rx="4"/>
      </g>
      <g class="cls-11" transform="matrix(0.996, -0.087, 0.087, 0.996, 0, 304.846)">
        <rect class="cls-13" width="78.485" height="12.558" rx="2"/>
        <rect class="cls-16" x="-2" y="-2" width="82.485" height="16.558" rx="4"/>
      </g>
    </g>
  </g>
</svg>
